<svg width="354" height="167" viewBox="0 0 354 167" fill="none" xmlns="http://www.w3.org/2000/svg">
<rect width="354" height="167" rx="20" fill="#F8FDDF"/>
<path d="M43.99 86V81.845L44.425 83.045L39.865 75.5H41.95L45.61 81.575H44.44L48.13 75.5H50.05L45.49 83.045L45.94 81.845V86H43.99ZM53.8534 86.105C53.0334 86.105 52.3034 85.93 51.6634 85.58C51.0234 85.22 50.5184 84.73 50.1484 84.11C49.7784 83.49 49.5934 82.785 49.5934 81.995C49.5934 81.195 49.7784 80.49 50.1484 79.88C50.5184 79.26 51.0234 78.775 51.6634 78.425C52.3034 78.075 53.0334 77.9 53.8534 77.9C54.6834 77.9 55.4184 78.075 56.0584 78.425C56.7084 78.775 57.2134 79.255 57.5734 79.865C57.9434 80.475 58.1284 81.185 58.1284 81.995C58.1284 82.785 57.9434 83.49 57.5734 84.11C57.2134 84.73 56.7084 85.22 56.0584 85.58C55.4184 85.93 54.6834 86.105 53.8534 86.105ZM53.8534 84.5C54.3134 84.5 54.7234 84.4 55.0834 84.2C55.4434 84 55.7234 83.71 55.9234 83.33C56.1334 82.95 56.2384 82.505 56.2384 81.995C56.2384 81.475 56.1334 81.03 55.9234 80.66C55.7234 80.28 55.4434 79.99 55.0834 79.79C54.7234 79.59 54.3184 79.49 53.8684 79.49C53.4084 79.49 52.9984 79.59 52.6384 79.79C52.2884 79.99 52.0084 80.28 51.7984 80.66C51.5884 81.03 51.4834 81.475 51.4834 81.995C51.4834 82.505 51.5884 82.95 51.7984 83.33C52.0084 83.71 52.2884 84 52.6384 84.2C52.9984 84.4 53.4034 84.5 53.8534 84.5ZM63.3114 86.105C62.6314 86.105 62.0314 85.98 61.5114 85.73C60.9914 85.47 60.5864 85.08 60.2964 84.56C60.0064 84.03 59.8614 83.365 59.8614 82.565V77.99H61.7364V82.31C61.7364 83.03 61.8964 83.57 62.2164 83.93C62.5464 84.28 63.0114 84.455 63.6114 84.455C64.0514 84.455 64.4314 84.365 64.7514 84.185C65.0814 84.005 65.3364 83.735 65.5164 83.375C65.7064 83.015 65.8014 82.57 65.8014 82.04V77.99H67.6764V86H65.8914V83.84L66.2064 84.5C65.9364 85.02 65.5414 85.42 65.0214 85.7C64.5014 85.97 63.9314 86.105 63.3114 86.105ZM70.1314 86V77.99H71.9164V80.195L71.7064 79.55C71.9464 79.01 72.3214 78.6 72.8314 78.32C73.3514 78.04 73.9964 77.9 74.7664 77.9V79.685C74.6864 79.665 74.6114 79.655 74.5414 79.655C74.4714 79.645 74.4014 79.64 74.3314 79.64C73.6214 79.64 73.0564 79.85 72.6364 80.27C72.2164 80.68 72.0064 81.295 72.0064 82.115V86H70.1314ZM80.7557 86V75.5H82.7057V86H80.7557ZM95.4757 77.9C96.1157 77.9 96.6807 78.025 97.1707 78.275C97.6707 78.525 98.0607 78.91 98.3407 79.43C98.6207 79.94 98.7607 80.6 98.7607 81.41V86H96.8857V81.65C96.8857 80.94 96.7307 80.41 96.4207 80.06C96.1107 79.71 95.6657 79.535 95.0857 79.535C94.6757 79.535 94.3107 79.625 93.9907 79.805C93.6807 79.985 93.4357 80.25 93.2557 80.6C93.0857 80.95 93.0007 81.395 93.0007 81.935V86H91.1257V81.65C91.1257 80.94 90.9707 80.41 90.6607 80.06C90.3507 79.71 89.9057 79.535 89.3257 79.535C88.9157 79.535 88.5507 79.625 88.2307 79.805C87.9207 79.985 87.6757 80.25 87.4957 80.6C87.3257 80.95 87.2407 81.395 87.2407 81.935V86H85.3657V77.99H87.1507V80.12L86.8357 79.49C87.1057 78.97 87.4957 78.575 88.0057 78.305C88.5257 78.035 89.1157 77.9 89.7757 77.9C90.5257 77.9 91.1757 78.085 91.7257 78.455C92.2857 78.825 92.6557 79.385 92.8357 80.135L92.1007 79.88C92.3607 79.28 92.7907 78.8 93.3907 78.44C93.9907 78.08 94.6857 77.9 95.4757 77.9ZM106.092 86V84.38L105.987 84.035V81.2C105.987 80.65 105.822 80.225 105.492 79.925C105.162 79.615 104.662 79.46 103.992 79.46C103.542 79.46 103.097 79.53 102.657 79.67C102.227 79.81 101.862 80.005 101.562 80.255L100.827 78.89C101.257 78.56 101.767 78.315 102.357 78.155C102.957 77.985 103.577 77.9 104.217 77.9C105.377 77.9 106.272 78.18 106.902 78.74C107.542 79.29 107.862 80.145 107.862 81.305V86H106.092ZM103.572 86.105C102.972 86.105 102.447 86.005 101.997 85.805C101.547 85.595 101.197 85.31 100.947 84.95C100.707 84.58 100.587 84.165 100.587 83.705C100.587 83.255 100.692 82.85 100.902 82.49C101.122 82.13 101.477 81.845 101.967 81.635C102.457 81.425 103.107 81.32 103.917 81.32H106.242V82.565H104.052C103.412 82.565 102.982 82.67 102.762 82.88C102.542 83.08 102.432 83.33 102.432 83.63C102.432 83.97 102.567 84.24 102.837 84.44C103.107 84.64 103.482 84.74 103.962 84.74C104.422 84.74 104.832 84.635 105.192 84.425C105.562 84.215 105.827 83.905 105.987 83.495L106.302 84.62C106.122 85.09 105.797 85.455 105.327 85.715C104.867 85.975 104.282 86.105 103.572 86.105ZM113.913 89.015C113.173 89.015 112.448 88.915 111.738 88.715C111.038 88.525 110.463 88.245 110.013 87.875L110.853 86.465C111.203 86.755 111.643 86.985 112.173 87.155C112.713 87.335 113.258 87.425 113.808 87.425C114.688 87.425 115.333 87.22 115.743 86.81C116.153 86.41 116.358 85.805 116.358 84.995V83.57L116.508 81.755L116.448 79.94V77.99H118.233V84.785C118.233 86.235 117.863 87.3 117.123 87.98C116.383 88.67 115.313 89.015 113.913 89.015ZM113.673 85.64C112.913 85.64 112.223 85.48 111.603 85.16C110.993 84.83 110.508 84.375 110.148 83.795C109.798 83.215 109.623 82.535 109.623 81.755C109.623 80.985 109.798 80.31 110.148 79.73C110.508 79.15 110.993 78.7 111.603 78.38C112.223 78.06 112.913 77.9 113.673 77.9C114.353 77.9 114.963 78.035 115.503 78.305C116.043 78.575 116.473 78.995 116.793 79.565C117.123 80.135 117.288 80.865 117.288 81.755C117.288 82.645 117.123 83.38 116.793 83.96C116.473 84.53 116.043 84.955 115.503 85.235C114.963 85.505 114.353 85.64 113.673 85.64ZM113.958 84.05C114.428 84.05 114.848 83.955 115.218 83.765C115.588 83.565 115.873 83.295 116.073 82.955C116.283 82.605 116.388 82.205 116.388 81.755C116.388 81.305 116.283 80.91 116.073 80.57C115.873 80.22 115.588 79.955 115.218 79.775C114.848 79.585 114.428 79.49 113.958 79.49C113.488 79.49 113.063 79.585 112.683 79.775C112.313 79.955 112.023 80.22 111.813 80.57C111.613 80.91 111.513 81.305 111.513 81.755C111.513 82.205 111.613 82.605 111.813 82.955C112.023 83.295 112.313 83.565 112.683 83.765C113.063 83.955 113.488 84.05 113.958 84.05ZM124.463 86.105C123.573 86.105 122.793 85.93 122.123 85.58C121.463 85.22 120.948 84.73 120.578 84.11C120.218 83.49 120.038 82.785 120.038 81.995C120.038 81.195 120.213 80.49 120.563 79.88C120.923 79.26 121.413 78.775 122.033 78.425C122.663 78.075 123.378 77.9 124.178 77.9C124.958 77.9 125.653 78.07 126.263 78.41C126.873 78.75 127.353 79.23 127.703 79.85C128.053 80.47 128.228 81.2 128.228 82.04C128.228 82.12 128.223 82.21 128.213 82.31C128.213 82.41 128.208 82.505 128.198 82.595H121.523V81.35H127.208L126.473 81.74C126.483 81.28 126.388 80.875 126.188 80.525C125.988 80.175 125.713 79.9 125.363 79.7C125.023 79.5 124.628 79.4 124.178 79.4C123.718 79.4 123.313 79.5 122.963 79.7C122.623 79.9 122.353 80.18 122.153 80.54C121.963 80.89 121.868 81.305 121.868 81.785V82.085C121.868 82.565 121.978 82.99 122.198 83.36C122.418 83.73 122.728 84.015 123.128 84.215C123.528 84.415 123.988 84.515 124.508 84.515C124.958 84.515 125.363 84.445 125.723 84.305C126.083 84.165 126.403 83.945 126.683 83.645L127.688 84.8C127.328 85.22 126.873 85.545 126.323 85.775C125.783 85.995 125.163 86.105 124.463 86.105ZM136.829 86L133.349 75.5H135.374L138.479 84.995H137.474L140.699 75.5H142.499L145.634 84.995H144.659L147.839 75.5H149.699L146.219 86H144.149L141.284 77.435H141.824L138.914 86H136.829ZM151.181 86V77.99H153.056V86H151.181ZM152.126 76.67C151.776 76.67 151.486 76.56 151.256 76.34C151.036 76.12 150.926 75.855 150.926 75.545C150.926 75.225 151.036 74.96 151.256 74.75C151.486 74.53 151.776 74.42 152.126 74.42C152.476 74.42 152.761 74.525 152.981 74.735C153.211 74.935 153.326 75.19 153.326 75.5C153.326 75.83 153.216 76.11 152.996 76.34C152.776 76.56 152.486 76.67 152.126 76.67ZM155.517 86V74.87H157.392V86H155.517ZM159.853 86V74.87H161.728V86H159.853ZM168.514 86V75.5H173.434C174.694 75.5 175.654 75.75 176.314 76.25C176.974 76.74 177.304 77.4 177.304 78.23C177.304 78.79 177.174 79.27 176.914 79.67C176.654 80.06 176.304 80.365 175.864 80.585C175.434 80.795 174.964 80.9 174.454 80.9L174.724 80.36C175.314 80.36 175.844 80.47 176.314 80.69C176.784 80.9 177.154 81.21 177.424 81.62C177.704 82.03 177.844 82.54 177.844 83.15C177.844 84.05 177.499 84.75 176.809 85.25C176.119 85.75 175.094 86 173.734 86H168.514ZM170.464 84.47H173.614C174.344 84.47 174.904 84.35 175.294 84.11C175.684 83.87 175.879 83.485 175.879 82.955C175.879 82.435 175.684 82.055 175.294 81.815C174.904 81.565 174.344 81.44 173.614 81.44H170.314V79.925H173.224C173.904 79.925 174.424 79.805 174.784 79.565C175.154 79.325 175.339 78.965 175.339 78.485C175.339 77.995 175.154 77.63 174.784 77.39C174.424 77.15 173.904 77.03 173.224 77.03H170.464V84.47ZM183.511 86.105C182.621 86.105 181.841 85.93 181.171 85.58C180.511 85.22 179.996 84.73 179.626 84.11C179.266 83.49 179.086 82.785 179.086 81.995C179.086 81.195 179.261 80.49 179.611 79.88C179.971 79.26 180.461 78.775 181.081 78.425C181.711 78.075 182.426 77.9 183.226 77.9C184.006 77.9 184.701 78.07 185.311 78.41C185.921 78.75 186.401 79.23 186.751 79.85C187.101 80.47 187.276 81.2 187.276 82.04C187.276 82.12 187.271 82.21 187.261 82.31C187.261 82.41 187.256 82.505 187.246 82.595H180.571V81.35H186.256L185.521 81.74C185.531 81.28 185.436 80.875 185.236 80.525C185.036 80.175 184.761 79.9 184.411 79.7C184.071 79.5 183.676 79.4 183.226 79.4C182.766 79.4 182.361 79.5 182.011 79.7C181.671 79.9 181.401 80.18 181.201 80.54C181.011 80.89 180.916 81.305 180.916 81.785V82.085C180.916 82.565 181.026 82.99 181.246 83.36C181.466 83.73 181.776 84.015 182.176 84.215C182.576 84.415 183.036 84.515 183.556 84.515C184.006 84.515 184.411 84.445 184.771 84.305C185.131 84.165 185.451 83.945 185.731 83.645L186.736 84.8C186.376 85.22 185.921 85.545 185.371 85.775C184.831 85.995 184.211 86.105 183.511 86.105ZM193.402 86V75.5H197.992C199.132 75.5 200.132 75.72 200.992 76.16C201.852 76.6 202.522 77.21 203.002 77.99C203.482 78.77 203.722 79.69 203.722 80.75C203.722 81.8 203.482 82.72 203.002 83.51C202.522 84.29 201.852 84.9 200.992 85.34C200.132 85.78 199.132 86 197.992 86H193.402ZM195.352 84.35H197.902C198.692 84.35 199.372 84.2 199.942 83.9C200.522 83.6 200.967 83.18 201.277 82.64C201.597 82.1 201.757 81.47 201.757 80.75C201.757 80.02 201.597 79.39 201.277 78.86C200.967 78.32 200.522 77.9 199.942 77.6C199.372 77.3 198.692 77.15 197.902 77.15H195.352V84.35ZM205.615 86V77.99H207.49V86H205.615ZM206.56 76.67C206.21 76.67 205.92 76.56 205.69 76.34C205.47 76.12 205.36 75.855 205.36 75.545C205.36 75.225 205.47 74.96 205.69 74.75C205.92 74.53 206.21 74.42 206.56 74.42C206.91 74.42 207.195 74.525 207.415 74.735C207.645 74.935 207.76 75.19 207.76 75.5C207.76 75.83 207.65 76.11 207.43 76.34C207.21 76.56 206.92 76.67 206.56 76.67ZM212.426 86.105C211.756 86.105 211.111 86.02 210.491 85.85C209.881 85.67 209.396 85.455 209.036 85.205L209.756 83.78C210.116 84.01 210.546 84.2 211.046 84.35C211.546 84.5 212.046 84.575 212.546 84.575C213.136 84.575 213.561 84.495 213.821 84.335C214.091 84.175 214.226 83.96 214.226 83.69C214.226 83.47 214.136 83.305 213.956 83.195C213.776 83.075 213.541 82.985 213.251 82.925C212.961 82.865 212.636 82.81 212.276 82.76C211.926 82.71 211.571 82.645 211.211 82.565C210.861 82.475 210.541 82.35 210.251 82.19C209.961 82.02 209.726 81.795 209.546 81.515C209.366 81.235 209.276 80.865 209.276 80.405C209.276 79.895 209.421 79.455 209.711 79.085C210.001 78.705 210.406 78.415 210.926 78.215C211.456 78.005 212.081 77.9 212.801 77.9C213.341 77.9 213.886 77.96 214.436 78.08C214.986 78.2 215.441 78.37 215.801 78.59L215.081 80.015C214.701 79.785 214.316 79.63 213.926 79.55C213.546 79.46 213.166 79.415 212.786 79.415C212.216 79.415 211.791 79.5 211.511 79.67C211.241 79.84 211.106 80.055 211.106 80.315C211.106 80.555 211.196 80.735 211.376 80.855C211.556 80.975 211.791 81.07 212.081 81.14C212.371 81.21 212.691 81.27 213.041 81.32C213.401 81.36 213.756 81.425 214.106 81.515C214.456 81.605 214.776 81.73 215.066 81.89C215.366 82.04 215.606 82.255 215.786 82.535C215.966 82.815 216.056 83.18 216.056 83.63C216.056 84.13 215.906 84.565 215.606 84.935C215.316 85.305 214.901 85.595 214.361 85.805C213.821 86.005 213.176 86.105 212.426 86.105ZM222.11 86.105C221.46 86.105 220.865 85.955 220.325 85.655C219.795 85.355 219.37 84.905 219.05 84.305C218.74 83.695 218.585 82.925 218.585 81.995C218.585 81.055 218.735 80.285 219.035 79.685C219.345 79.085 219.765 78.64 220.295 78.35C220.825 78.05 221.43 77.9 222.11 77.9C222.9 77.9 223.595 78.07 224.195 78.41C224.805 78.75 225.285 79.225 225.635 79.835C225.995 80.445 226.175 81.165 226.175 81.995C226.175 82.825 225.995 83.55 225.635 84.17C225.285 84.78 224.805 85.255 224.195 85.595C223.595 85.935 222.9 86.105 222.11 86.105ZM217.67 88.91V77.99H219.455V79.88L219.395 82.01L219.545 84.14V88.91H217.67ZM221.9 84.5C222.35 84.5 222.75 84.4 223.1 84.2C223.46 84 223.745 83.71 223.955 83.33C224.165 82.95 224.27 82.505 224.27 81.995C224.27 81.475 224.165 81.03 223.955 80.66C223.745 80.28 223.46 79.99 223.1 79.79C222.75 79.59 222.35 79.49 221.9 79.49C221.45 79.49 221.045 79.59 220.685 79.79C220.325 79.99 220.04 80.28 219.83 80.66C219.62 81.03 219.515 81.475 219.515 81.995C219.515 82.505 219.62 82.95 219.83 83.33C220.04 83.71 220.325 84 220.685 84.2C221.045 84.4 221.45 84.5 221.9 84.5ZM227.954 86V74.87H229.829V86H227.954ZM237.225 86V84.38L237.12 84.035V81.2C237.12 80.65 236.955 80.225 236.625 79.925C236.295 79.615 235.795 79.46 235.125 79.46C234.675 79.46 234.23 79.53 233.79 79.67C233.36 79.81 232.995 80.005 232.695 80.255L231.96 78.89C232.39 78.56 232.9 78.315 233.49 78.155C234.09 77.985 234.71 77.9 235.35 77.9C236.51 77.9 237.405 78.18 238.035 78.74C238.675 79.29 238.995 80.145 238.995 81.305V86H237.225ZM234.705 86.105C234.105 86.105 233.58 86.005 233.13 85.805C232.68 85.595 232.33 85.31 232.08 84.95C231.84 84.58 231.72 84.165 231.72 83.705C231.72 83.255 231.825 82.85 232.035 82.49C232.255 82.13 232.61 81.845 233.1 81.635C233.59 81.425 234.24 81.32 235.05 81.32H237.375V82.565H235.185C234.545 82.565 234.115 82.67 233.895 82.88C233.675 83.08 233.565 83.33 233.565 83.63C233.565 83.97 233.7 84.24 233.97 84.44C234.24 84.64 234.615 84.74 235.095 84.74C235.555 84.74 235.965 84.635 236.325 84.425C236.695 84.215 236.96 83.905 237.12 83.495L237.435 84.62C237.255 85.09 236.93 85.455 236.46 85.715C236 85.975 235.415 86.105 234.705 86.105ZM241.914 89.015C241.524 89.015 241.134 88.95 240.744 88.82C240.354 88.69 240.029 88.51 239.769 88.28L240.519 86.9C240.709 87.07 240.924 87.205 241.164 87.305C241.404 87.405 241.649 87.455 241.899 87.455C242.239 87.455 242.514 87.37 242.724 87.2C242.934 87.03 243.129 86.745 243.309 86.345L243.774 85.295L243.924 85.07L246.954 77.99H248.754L245.004 86.645C244.754 87.245 244.474 87.72 244.164 88.07C243.864 88.42 243.524 88.665 243.144 88.805C242.774 88.945 242.364 89.015 241.914 89.015ZM243.564 86.285L239.949 77.99H241.899L244.839 84.905L243.564 86.285ZM253.472 86.105C252.582 86.105 251.802 85.93 251.132 85.58C250.472 85.22 249.957 84.73 249.587 84.11C249.227 83.49 249.047 82.785 249.047 81.995C249.047 81.195 249.222 80.49 249.572 79.88C249.932 79.26 250.422 78.775 251.042 78.425C251.672 78.075 252.387 77.9 253.187 77.9C253.967 77.9 254.662 78.07 255.272 78.41C255.882 78.75 256.362 79.23 256.712 79.85C257.062 80.47 257.237 81.2 257.237 82.04C257.237 82.12 257.232 82.21 257.222 82.31C257.222 82.41 257.217 82.505 257.207 82.595H250.532V81.35H256.217L255.482 81.74C255.492 81.28 255.397 80.875 255.197 80.525C254.997 80.175 254.722 79.9 254.372 79.7C254.032 79.5 253.637 79.4 253.187 79.4C252.727 79.4 252.322 79.5 251.972 79.7C251.632 79.9 251.362 80.18 251.162 80.54C250.972 80.89 250.877 81.305 250.877 81.785V82.085C250.877 82.565 250.987 82.99 251.207 83.36C251.427 83.73 251.737 84.015 252.137 84.215C252.537 84.415 252.997 84.515 253.517 84.515C253.967 84.515 254.372 84.445 254.732 84.305C255.092 84.165 255.412 83.945 255.692 83.645L256.697 84.8C256.337 85.22 255.882 85.545 255.332 85.775C254.792 85.995 254.172 86.105 253.472 86.105ZM262.428 86.105C261.658 86.105 260.963 85.935 260.343 85.595C259.733 85.245 259.253 84.765 258.903 84.155C258.553 83.545 258.378 82.825 258.378 81.995C258.378 81.165 258.553 80.445 258.903 79.835C259.253 79.225 259.733 78.75 260.343 78.41C260.963 78.07 261.658 77.9 262.428 77.9C263.098 77.9 263.698 78.05 264.228 78.35C264.758 78.64 265.178 79.085 265.488 79.685C265.798 80.285 265.953 81.055 265.953 81.995C265.953 82.925 265.803 83.695 265.503 84.305C265.203 84.905 264.788 85.355 264.258 85.655C263.728 85.955 263.118 86.105 262.428 86.105ZM262.653 84.5C263.103 84.5 263.503 84.4 263.853 84.2C264.213 84 264.498 83.71 264.708 83.33C264.928 82.95 265.038 82.505 265.038 81.995C265.038 81.475 264.928 81.03 264.708 80.66C264.498 80.28 264.213 79.99 263.853 79.79C263.503 79.59 263.103 79.49 262.653 79.49C262.203 79.49 261.798 79.59 261.438 79.79C261.088 79.99 260.803 80.28 260.583 80.66C260.373 81.03 260.268 81.475 260.268 81.995C260.268 82.505 260.373 82.95 260.583 83.33C260.803 83.71 261.088 84 261.438 84.2C261.798 84.4 262.203 84.5 262.653 84.5ZM265.083 86V84.11L265.158 81.98L265.008 79.85V74.87H266.868V86H265.083ZM281.041 75.5H282.991V86H281.041V75.5ZM275.611 86H273.661V75.5H275.611V86ZM281.191 81.5H275.446V79.835H281.191V81.5ZM289.39 86.105C288.5 86.105 287.72 85.93 287.05 85.58C286.39 85.22 285.875 84.73 285.505 84.11C285.145 83.49 284.965 82.785 284.965 81.995C284.965 81.195 285.14 80.49 285.49 79.88C285.85 79.26 286.34 78.775 286.96 78.425C287.59 78.075 288.305 77.9 289.105 77.9C289.885 77.9 290.58 78.07 291.19 78.41C291.8 78.75 292.28 79.23 292.63 79.85C292.98 80.47 293.155 81.2 293.155 82.04C293.155 82.12 293.15 82.21 293.14 82.31C293.14 82.41 293.135 82.505 293.125 82.595H286.45V81.35H292.135L291.4 81.74C291.41 81.28 291.315 80.875 291.115 80.525C290.915 80.175 290.64 79.9 290.29 79.7C289.95 79.5 289.555 79.4 289.105 79.4C288.645 79.4 288.24 79.5 287.89 79.7C287.55 79.9 287.28 80.18 287.08 80.54C286.89 80.89 286.795 81.305 286.795 81.785V82.085C286.795 82.565 286.905 82.99 287.125 83.36C287.345 83.73 287.655 84.015 288.055 84.215C288.455 84.415 288.915 84.515 289.435 84.515C289.885 84.515 290.29 84.445 290.65 84.305C291.01 84.165 291.33 83.945 291.61 83.645L292.615 84.8C292.255 85.22 291.8 85.545 291.25 85.775C290.71 85.995 290.09 86.105 289.39 86.105ZM294.956 86V77.99H296.741V80.195L296.531 79.55C296.771 79.01 297.146 78.6 297.656 78.32C298.176 78.04 298.821 77.9 299.591 77.9V79.685C299.511 79.665 299.436 79.655 299.366 79.655C299.296 79.645 299.226 79.64 299.156 79.64C298.446 79.64 297.881 79.85 297.461 80.27C297.041 80.68 296.831 81.295 296.831 82.115V86H294.956ZM304.873 86.105C303.983 86.105 303.203 85.93 302.533 85.58C301.873 85.22 301.358 84.73 300.988 84.11C300.628 83.49 300.448 82.785 300.448 81.995C300.448 81.195 300.623 80.49 300.973 79.88C301.333 79.26 301.823 78.775 302.443 78.425C303.073 78.075 303.788 77.9 304.588 77.9C305.368 77.9 306.063 78.07 306.673 78.41C307.283 78.75 307.763 79.23 308.113 79.85C308.463 80.47 308.638 81.2 308.638 82.04C308.638 82.12 308.633 82.21 308.623 82.31C308.623 82.41 308.618 82.505 308.608 82.595H301.933V81.35H307.618L306.883 81.74C306.893 81.28 306.798 80.875 306.598 80.525C306.398 80.175 306.123 79.9 305.773 79.7C305.433 79.5 305.038 79.4 304.588 79.4C304.128 79.4 303.723 79.5 303.373 79.7C303.033 79.9 302.763 80.18 302.563 80.54C302.373 80.89 302.278 81.305 302.278 81.785V82.085C302.278 82.565 302.388 82.99 302.608 83.36C302.828 83.73 303.138 84.015 303.538 84.215C303.938 84.415 304.398 84.515 304.918 84.515C305.368 84.515 305.773 84.445 306.133 84.305C306.493 84.165 306.813 83.945 307.093 83.645L308.098 84.8C307.738 85.22 307.283 85.545 306.733 85.775C306.193 85.995 305.573 86.105 304.873 86.105Z" fill="#105157"/>
</svg>
